HIERARCHY
ROOT hip
{
  OFFSET 0 0 0
  CHANNELS 6 Xposition Yposition Zposition Zrotation Yrotation Xrotation
  JOINT abdomen
  {
    OFFSET 0 20.6881 -0.73152
    CHANNELS 3 Zrotation Xrotation Yrotation
    JOINT chest
    {
      OFFSET 0 11.7043 -0.48768
      CHANNELS 3 Zrotation Xrotation Yrotation
      JOINT neck
      {
        OFFSET 0 22.1894 -2.19456
        CHANNELS 3 Zrotation Xrotation Yrotation
        JOINT head
        {
          OFFSET -0.24384 7.07133 1.2192
          CHANNELS 3 Zrotation Xrotation Yrotation
          JOINT leftEye
          {
            OFFSET 4.14528 8.04674 8.04672
            CHANNELS 3 Zrotation Xrotation Yrotation
            End Site
            {
              OFFSET 1 0 0
            }
          }
          JOINT rightEye
          {
            OFFSET -3.6576 8.04674 8.04672
            CHANNELS 3 Zrotation Xrotation Yrotation
            End Site
            {
              OFFSET 1 0 0
            }
          }
        }
      }
      JOINT rCollar
      {
        OFFSET -2.68224 19.2634 -4.8768
        CHANNELS 3 Zrotation Xrotation Yrotation
        JOINT rShldr
        {
          OFFSET -8.77824 -1.95073 1.46304
          CHANNELS 3 Zrotation Xrotation Yrotation
          JOINT rForeArm
          {
            OFFSET -28.1742 -1.7115 0.48768
            CHANNELS 3 Zrotation Xrotation Yrotation
            JOINT rHand
            {
              OFFSET -22.5879 0.773209 7.07136
              CHANNELS 3 Zrotation Xrotation Yrotation
              JOINT rThumb1
              {
                OFFSET -1.2192 -0.487915 3.41376
                CHANNELS 3 Zrotation Xrotation Yrotation
                JOINT rThumb2
                {
                  OFFSET -3.37035 -0.52449 3.41376
                  CHANNELS 3 Zrotation Xrotation Yrotation
                  End Site
                  {
                    OFFSET -1.78271 -1.18214 1.43049
                  }
                }
              }
              JOINT rIndex1
              {
                OFFSET -7.75947 0.938293 5.60832
                CHANNELS 3 Zrotation Xrotation Yrotation
                JOINT rIndex2
                {
                  OFFSET -2.54057 -0.884171 1.56538
                  CHANNELS 3 Zrotation Xrotation Yrotation
                  End Site
                  {
                    OFFSET -1.62519 -0.234802 1.16502
                  }
                }
              }
              JOINT rMid1
              {
                OFFSET -8.24714 1.18213 3.41376
                CHANNELS 3 Zrotation Xrotation Yrotation
                JOINT rMid2
                {
                  OFFSET -3.10165 -0.590103 1.0647
                  CHANNELS 3 Zrotation Xrotation Yrotation
                  End Site
                  {
                    OFFSET -2.48547 -0.328903 0.83742
                  }
                }
              }
              JOINT rRing1
              {
                OFFSET -8.82822 0.546677 1.51678
                CHANNELS 3 Zrotation Xrotation Yrotation
                JOINT rRing2
                {
                  OFFSET -2.60934 -0.819778 -0.0198488
                  CHANNELS 3 Zrotation Xrotation Yrotation
                  End Site
                  {
                    OFFSET -2.33842 -0.294052 0.168128
                  }
                }
              }
              JOINT rPinky1
              {
                OFFSET -8.27202 -0.0477905 -0.4584
                CHANNELS 3 Zrotation Xrotation Yrotation
                JOINT rPinky2
                {
                  OFFSET -1.82734 -0.647385 -0.700984
                  CHANNELS 3 Zrotation Xrotation Yrotation
                  End Site
                  {
                    OFFSET -1.69225 -0.51767 -0.607171
                  }
                }
              }
            }
          }
        }
      }
      JOINT lCollar
      {
        OFFSET 2.68224 19.2634 -4.8768
        CHANNELS 3 Zrotation Xrotation Yrotation
        JOINT lShldr
        {
          OFFSET 8.77824 -1.95073 1.46304
          CHANNELS 3 Zrotation Xrotation Yrotation
          JOINT lForeArm
          {
            OFFSET 28.1742 -1.7115 0.48768
            CHANNELS 3 Zrotation Xrotation Yrotation
            JOINT lHand
            {
              OFFSET 22.5879 0.773209 7.07136
              CHANNELS 3 Zrotation Xrotation Yrotation
              JOINT lThumb1
              {
                OFFSET 1.2192 -0.487915 3.41376
                CHANNELS 3 Zrotation Xrotation Yrotation
                JOINT lThumb2
                {
                  OFFSET 3.37035 -0.52449 3.41376
                  CHANNELS 3 Zrotation Xrotation Yrotation
                  End Site
                  {
                    OFFSET 1.78271 -1.18214 1.43049
                  }
                }
              }
              JOINT lIndex1
              {
                OFFSET 7.75947 0.938293 5.60832
                CHANNELS 3 Zrotation Xrotation Yrotation
                JOINT lIndex2
                {
                  OFFSET 2.54057 -0.884171 1.56538
                  CHANNELS 3 Zrotation Xrotation Yrotation
                  End Site
                  {
                    OFFSET 1.62519 -0.234802 1.16502
                  }
                }
              }
              JOINT lMid1
              {
                OFFSET 8.24714 1.18213 3.41376
                CHANNELS 3 Zrotation Xrotation Yrotation
                JOINT lMid2
                {
                  OFFSET 3.10165 -0.590103 1.0647
                  CHANNELS 3 Zrotation Xrotation Yrotation
                  End Site
                  {
                    OFFSET 2.48547 -0.328903 0.83742
                  }
                }
              }
              JOINT lRing1
              {
                OFFSET 8.82822 0.546677 1.51678
                CHANNELS 3 Zrotation Xrotation Yrotation
                JOINT lRing2
                {
                  OFFSET 2.60934 -0.819778 -0.0198488
                  CHANNELS 3 Zrotation Xrotation Yrotation
                  End Site
                  {
                    OFFSET 2.33842 -0.294052 0.168128
                  }
                }
              }
              JOINT lPinky1
              {
                OFFSET 8.27202 -0.0477905 -0.4584
                CHANNELS 3 Zrotation Xrotation Yrotation
                JOINT lPinky2
                {
                  OFFSET 1.82734 -0.647385 -0.700984
                  CHANNELS 3 Zrotation Xrotation Yrotation
                  End Site
                  {
                    OFFSET 1.69225 -0.51767 -0.607171
                  }
                }
              }
            }
          }
        }
      }
    }
  }
  JOINT rButtock
  {
    OFFSET -8.77824 4.35084 1.2192
    CHANNELS 3 Zrotation Xrotation Yrotation
    JOINT rThigh
    {
      OFFSET 0 -1.70687 -2.19456
      CHANNELS 3 Zrotation Xrotation Yrotation
      JOINT rShin
      {
        OFFSET 0 -36.8199 0.73152
        CHANNELS 3 Zrotation Xrotation Yrotation
        JOINT rFoot
        {
          OFFSET 0.73152 -45.1104 -5.12064
          CHANNELS 3 Zrotation Xrotation Yrotation
          End Site
          {
            OFFSET -1.1221 -3.69964 12.103
          }
        }
      }
    }
  }
  JOINT lButtock
  {
    OFFSET 8.77824 4.35084 1.2192
    CHANNELS 3 Zrotation Xrotation Yrotation
    JOINT lThigh
    {
      OFFSET 0 -1.70687 -2.19456
      CHANNELS 3 Zrotation Xrotation Yrotation
      JOINT lShin
      {
        OFFSET 0 -36.8199 0.73152
        CHANNELS 3 Zrotation Xrotation Yrotation
        JOINT lFoot
        {
          OFFSET -0.73152 -45.1104 -5.12064
          CHANNELS 3 Zrotation Xrotation Yrotation
          End Site
          {
            OFFSET 1.1221 -3.69964 12.103
          }
        }
      }
    }
  }
}
MOTION
Frames:	5
Frame Time:	0.03333
0.0 0.0 0.0 0.0 0.0 0.0 0.0 0.0 0.0 0.0 0.0 0.0 0.0 0.0 0.0 0.0 0.0 0.0 0.0 0.0 0.0 0.0 0.0 0.0 0.0 0.0 0.0 0.0 0.0 0.0 0.0 0.0 0.0 0.0 0.0 0.0 0.0 0.0 0.0 0.0 0.0 0.0 0.0 0.0 0.0 0.0 0.0 0.0 0.0 0.0 0.0 0.0 0.0 0.0 0.0 0.0 0.0 0.0 0.0 0.0 0.0 0.0 0.0 0.0 0.0 0.0 0.0 0.0 0.0 0.0 0.0 0.0 0.0 0.0 0.0 0.0 0.0 0.0 0.0 0.0 0.0 0.0 0.0 0.0 0.0 0.0 0.0 0.0 0.0 0.0 0.0 0.0 0.0 0.0 0.0 0.0 0.0 0.0 0.0 0.0 0.0 0.0 0.0 0.0 0.0 0.0 0.0 0.0 0.0 0.0 0.0 0.0 0.0 0.0 0.0 0.0 0.0 0.0 0.0 0.0 0.0 0.0 0.0 0.0 0.0 0.0 0.0 0.0 0.0 0.0 0.0 0.0
0.0007999999999999999 79.6099 0.0087 -2.838563 -17.397953 4.393674 -0.11816 0.088192 -126.736965 3.378663 2.533717 132.214529 7.510959 20.157195 84.673141 -31.331413 4.109231 -95.568161 0.001927 0.0 0.000647 0.001479 -0.0 -0.001554 4.231454 -44.380005 -8.574477 -61.90348 -43.457907 -115.465098 -74.565744 -56.506132 -126.514386 115.954567 -67.415472 99.730864 -7.759193 7.438891 1.681546 105.593602 -79.615219 32.740566 54.895896 -68.58933 11.307521 -170.312953 -36.005906 111.595745 -156.220672 6.26585 140.788886 -86.783359 63.821255 78.637513 -0.013791 -1.32301 -0.416823 -154.129428 12.76297 170.106204 -156.381658 53.734955 -150.115622 0.56798 -2.592622 -2.538775 28.898863 57.6204 -31.282059 -93.439953 -11.182502 -65.939603 -4.556512 -1.387496 -24.984229 10.370246 54.692262 -7.048883 174.193829 -11.857198 -89.870076 135.647801 11.837159 -68.262013 166.865832 -44.037564 -122.051547 -34.363676 -38.679323 7.513967 36.034706 51.723687 -29.831583 129.044475 52.027219 -118.423972 145.119018 0.1855 179.186383 148.129718 -43.031074 170.603326 -6.227019 18.789585 -5.575258 166.585673 70.916522 148.526338 179.984628 75.749965 0.010518 166.363235 47.45795 -0.0 0.582729 56.228305 123.901089 145.473446 58.743078 127.742074 -0.000319 -0.001409 0.00041 14.668536 -29.996707 -136.531769 -32.871031 -47.277035 46.891873 170.038047 0.25043 -96.344377
-0.014899999999999998 79.5589 0.0173 -2.744473 -17.261217 4.402727 -2.111819 3.876073 -0.0 1.958087 -8.016215 5.636785 -13.362657 20.671926 -65.582145 34.100518 0.263538 55.298187 0.000524 -0.0 -0.003288 0.000524 -0.0 -0.003288 -155.548493 -3.804096 161.900451 -62.895729 34.47823 11.427221 -143.151558 9.212113 -170.417957 7.62474 -19.719407 2.763604 174.054971 -22.871325 88.063912 98.179888 -73.927259 75.680251 60.461358 -70.523785 15.709985 -13.992874 38.05523 11.355993 12.028738 -37.2993 -3.219199 -160.773158 3.067098 142.306571 -0.000335 0.063697 0.020565 3.278555 44.816153 8.834692 -16.662011 -29.65915 -15.920314 -147.328039 13.521679 -143.955101 157.043483 -14.998699 -164.137805 123.656412 -74.471209 68.887351 -32.488932 73.142165 85.807032 -151.365679 -36.894207 -140.025352 -114.538321 -50.245268 -55.722214 18.007544 -49.708603 28.951391 -60.462637 -70.523211 -15.712083 150.643351 -5.069876 -114.700124 153.320123 13.628654 -138.861827 -167.37021 -63.991879 -132.422739 70.378699 -72.130147 87.280004 -12.11684 45.17384 -2.5513 7.018057 -15.481246 6.609485 -37.046168 80.93532 0.22464 179.987654 75.750187 0.008447 166.249678 47.337298 -0.0 1.616735 53.611117 97.888385 -174.420744 18.219933 96.847323 0.004807 -0.000126 0.002403 15.034252 -29.485415 -98.790762 -52.974124 -8.688158 160.012368 71.948876 -71.304918 -15.639749
-0.0391 79.5081 0.024399999999999998 -2.72579 -17.174075 4.456115 -2.150528 3.805745 0.053356 1.944284 -7.977243 5.558436 3.434446 30.729451 155.589675 -16.723706 38.310671 -161.836688 -0.002964 0.0 -0.000971 0.003104 0.0 0.000137 -85.537882 68.181704 88.688714 -121.104324 6.08752 102.544183 -169.552857 45.635346 -156.357037 -5.614381 20.825715 0.723599 -173.033183 -10.710463 89.920326 4.654094 -57.403993 9.542838 -173.764175 -52.872783 119.82322 -148.553707 3.449516 117.253843 -36.03727 51.722825 29.832388 11.579015 -24.899902 -1.456408 -145.122841 1.973412 -179.748944 11.926857 36.626059 -4.843226 -124.852621 -29.038847 -122.621512 11.907647 26.119366 4.382944 0.273073 1.606858 -0.360561 88.485633 20.986342 -169.215313 -173.501589 -17.774975 160.858328 18.855864 66.663463 -12.520985 173.770632 -11.440079 -89.890473 -179.682284 -16.481194 -95.572859 28.900955 31.616324 -21.337777 75.536988 49.456331 -55.491072 161.517521 -9.304476 -143.625441 42.503779 58.272795 -36.59531 -0.001897 -0.018176 0.008055 154.951016 5.048928 -171.186357 12.372826 -24.158844 11.756235 94.229532 -51.818262 94.049825 -179.990396 75.748436 -0.007902 166.69049 44.996422 -161.501064 -9.898399 -59.586396 47.592126 137.510077 -43.850374 -143.38136 179.995379 75.748437 0.003162 -164.203632 43.483702 137.720045 31.154192 -48.970805 -63.168005 62.731433 -83.80972 -25.027298
-0.079 79.4596 0.0181 -2.715941 -17.076689 4.486702 -4.435346 0.851974 101.988655 -5.865273 -3.095602 -96.787633 7.483139 19.862042 84.141711 -30.747861 3.922062 -95.255168 0.000903 0.0 0.003658 -0.000521 0.0 -0.003717 -9.651366 34.836243 11.199029 69.151243 7.309943 32.826973 -0.687845 -20.343411 28.725783 -5.569336 20.731722 0.720863 88.928613 -50.831307 37.599357 -137.666115 17.872811 100.55866 11.982403 -21.346512 -5.062662 -159.286648 -14.086874 110.819078 173.122027 -66.297668 137.612354 -154.158378 19.982749 138.434511 0.003883 1.771283 0.557179 -147.756569 46.799718 162.202685 -154.163484 45.106148 -148.907665 -162.708412 55.735816 -146.979788 -2.459786 -18.216384 3.668845 91.831707 -15.836627 168.25959 179.412407 6.680015 157.028194 12.000402 57.862956 -7.998491 -76.384891 -49.199688 -28.871637 139.006158 12.824395 -105.960887 -0.183813 -0.30073 0.103615 177.79427 -34.360755 -106.358558 0.399164 1.151322 -0.22356 83.249214 64.351144 -75.226945 145.119097 0.26823 179.211537 -11.584156 58.796161 1.666925 139.544025 -3.620827 136.691141 4.721864 -15.876733 8.025364 -179.99946 75.749076 -0.000557 167.85049 45.966257 -92.107762 -48.558137 -8.352948 85.861087 -27.576322 -22.944908 8.438098 -0.0 0.000566 0.000137 13.925122 -28.436406 0.0 -22.705376 53.138837 -89.062873 14.760931 34.284295 104.645873
